<?xml version="1.0" encoding="UTF-8" standalone="no"?>
<!DOCTYPE svg PUBLIC "-//W3C//DTD SVG 1.1//EN"
 "http://www.w3.org/Graphics/SVG/1.1/DTD/svg11.dtd">
<!-- Generated by graphviz version 2.40.1 (20161225.0304)
 -->
<!-- Title: %3 Pages: 1 -->
<svg width="314pt" height="513pt"
 viewBox="0.00 0.00 313.94 513.00" xmlns="http://www.w3.org/2000/svg" xmlns:xlink="http://www.w3.org/1999/xlink">
<g id="graph0" class="graph" transform="scale(1 1) rotate(0) translate(4 509)">
<title>%3</title>
<polygon fill="#ffffff" stroke="transparent" points="-4,4 -4,-509 309.9418,-509 309.9418,4 -4,4"/>
<!-- START START -->
<g id="node1" class="node">
<title>START START</title>
<ellipse fill="none" stroke="#000000" cx="144.2463" cy="-487" rx="68.7879" ry="18"/>
<text text-anchor="middle" x="144.2463" y="-483.3" font-family="Times,serif" font-size="14.00" fill="#000000">START START</text>
</g>
<!-- START My -->
<g id="node2" class="node">
<title>START My</title>
<ellipse fill="none" stroke="#000000" cx="81.2463" cy="-420" rx="53.8905" ry="18"/>
<text text-anchor="middle" x="81.2463" y="-416.3" font-family="Times,serif" font-size="14.00" fill="#000000">START My</text>
</g>
<!-- START START&#45;&gt;START My -->
<g id="edge1" class="edge">
<title>START START&#45;&gt;START My</title>
<path fill="none" stroke="#000000" d="M127.6937,-469.3965C120.6211,-461.8749 112.2398,-452.9614 104.5569,-444.7907"/>
<polygon fill="#000000" stroke="#000000" points="106.8704,-442.1418 97.4703,-437.2542 101.7708,-446.937 106.8704,-442.1418"/>
<text text-anchor="middle" x="131.7463" y="-449.8" font-family="Times,serif" font-size="14.00" fill="#000000">0.75</text>
</g>
<!-- START Your -->
<g id="node3" class="node">
<title>START Your</title>
<ellipse fill="none" stroke="#000000" cx="208.2463" cy="-420" rx="59.2899" ry="18"/>
<text text-anchor="middle" x="208.2463" y="-416.3" font-family="Times,serif" font-size="14.00" fill="#000000">START Your</text>
</g>
<!-- START START&#45;&gt;START Your -->
<g id="edge2" class="edge">
<title>START START&#45;&gt;START Your</title>
<path fill="none" stroke="#000000" d="M161.0615,-469.3965C168.0612,-462.0687 176.3227,-453.4199 183.9608,-445.4239"/>
<polygon fill="#000000" stroke="#000000" points="186.9446,-447.3672 191.3211,-437.7185 181.8829,-442.5321 186.9446,-447.3672"/>
<text text-anchor="middle" x="193.7463" y="-449.8" font-family="Times,serif" font-size="14.00" fill="#000000">0.25</text>
</g>
<!-- My favorite -->
<g id="node4" class="node">
<title>My favorite</title>
<ellipse fill="none" stroke="#000000" cx="81.2463" cy="-353" rx="53.0913" ry="18"/>
<text text-anchor="middle" x="81.2463" y="-349.3" font-family="Times,serif" font-size="14.00" fill="#000000">My favorite</text>
</g>
<!-- START My&#45;&gt;My favorite -->
<g id="edge3" class="edge">
<title>START My&#45;&gt;My favorite</title>
<path fill="none" stroke="#000000" d="M81.2463,-401.692C81.2463,-395.4879 81.2463,-388.4019 81.2463,-381.5924"/>
<polygon fill="#000000" stroke="#000000" points="84.7463,-381.2859 81.2463,-371.2859 77.7463,-381.2859 84.7463,-381.2859"/>
<text text-anchor="middle" x="84.7463" y="-382.8" font-family="Times,serif" font-size="14.00" fill="#000000">1</text>
</g>
<!-- Your favorite -->
<g id="node5" class="node">
<title>Your favorite</title>
<ellipse fill="none" stroke="#000000" cx="207.2463" cy="-353" rx="58.4896" ry="18"/>
<text text-anchor="middle" x="207.2463" y="-349.3" font-family="Times,serif" font-size="14.00" fill="#000000">Your favorite</text>
</g>
<!-- START Your&#45;&gt;Your favorite -->
<g id="edge4" class="edge">
<title>START Your&#45;&gt;Your favorite</title>
<path fill="none" stroke="#000000" d="M207.973,-401.692C207.8804,-395.4879 207.7746,-388.4019 207.673,-381.5924"/>
<polygon fill="#000000" stroke="#000000" points="211.1681,-381.2325 207.5192,-371.2859 204.1689,-381.3371 211.1681,-381.2325"/>
<text text-anchor="middle" x="210.7463" y="-382.8" font-family="Times,serif" font-size="14.00" fill="#000000">1</text>
</g>
<!-- favorite color -->
<g id="node6" class="node">
<title>favorite color</title>
<ellipse fill="none" stroke="#000000" cx="144.2463" cy="-286" rx="58.4896" ry="18"/>
<text text-anchor="middle" x="144.2463" y="-282.3" font-family="Times,serif" font-size="14.00" fill="#000000">favorite color</text>
</g>
<!-- My favorite&#45;&gt;favorite color -->
<g id="edge5" class="edge">
<title>My favorite&#45;&gt;favorite color</title>
<path fill="none" stroke="#000000" d="M97.4703,-335.7458C104.6161,-328.1464 113.1457,-319.0752 120.9524,-310.7728"/>
<polygon fill="#000000" stroke="#000000" points="123.5577,-313.1114 127.8582,-303.4286 118.4581,-308.3162 123.5577,-313.1114"/>
<text text-anchor="middle" x="122.7463" y="-315.8" font-family="Times,serif" font-size="14.00" fill="#000000">1</text>
</g>
<!-- Your favorite&#45;&gt;favorite color -->
<g id="edge6" class="edge">
<title>Your favorite&#45;&gt;favorite color</title>
<path fill="none" stroke="#000000" d="M190.6937,-335.3965C183.8034,-328.0687 175.671,-319.4199 168.1523,-311.4239"/>
<polygon fill="#000000" stroke="#000000" points="170.3071,-308.6061 160.9069,-303.7185 165.2074,-313.4013 170.3071,-308.6061"/>
<text text-anchor="middle" x="184.7463" y="-315.8" font-family="Times,serif" font-size="14.00" fill="#000000">1</text>
</g>
<!-- color is -->
<g id="node7" class="node">
<title>color is</title>
<ellipse fill="none" stroke="#000000" cx="144.2463" cy="-219" rx="37.0935" ry="18"/>
<text text-anchor="middle" x="144.2463" y="-215.3" font-family="Times,serif" font-size="14.00" fill="#000000">color is</text>
</g>
<!-- favorite color&#45;&gt;color is -->
<g id="edge7" class="edge">
<title>favorite color&#45;&gt;color is</title>
<path fill="none" stroke="#000000" d="M144.2463,-267.692C144.2463,-261.4879 144.2463,-254.4019 144.2463,-247.5924"/>
<polygon fill="#000000" stroke="#000000" points="147.7463,-247.2859 144.2463,-237.2859 140.7463,-247.2859 147.7463,-247.2859"/>
<text text-anchor="middle" x="147.7463" y="-248.8" font-family="Times,serif" font-size="14.00" fill="#000000">1</text>
</g>
<!-- is red -->
<g id="node8" class="node">
<title>is red</title>
<ellipse fill="none" stroke="#000000" cx="59.2463" cy="-152" rx="30.5947" ry="18"/>
<text text-anchor="middle" x="59.2463" y="-148.3" font-family="Times,serif" font-size="14.00" fill="#000000">is red</text>
</g>
<!-- color is&#45;&gt;is red -->
<g id="edge8" class="edge">
<title>color is&#45;&gt;is red</title>
<path fill="none" stroke="#000000" d="M124.5319,-203.4604C112.9456,-194.3277 98.1515,-182.6665 85.5768,-172.7547"/>
<polygon fill="#000000" stroke="#000000" points="87.7102,-169.9797 77.69,-166.538 83.3769,-175.4772 87.7102,-169.9797"/>
<text text-anchor="middle" x="122.7463" y="-181.8" font-family="Times,serif" font-size="14.00" fill="#000000">0.25</text>
</g>
<!-- is blue -->
<g id="node9" class="node">
<title>is blue</title>
<ellipse fill="none" stroke="#000000" cx="144.2463" cy="-152" rx="34.394" ry="18"/>
<text text-anchor="middle" x="144.2463" y="-148.3" font-family="Times,serif" font-size="14.00" fill="#000000">is blue</text>
</g>
<!-- color is&#45;&gt;is blue -->
<g id="edge9" class="edge">
<title>color is&#45;&gt;is blue</title>
<path fill="none" stroke="#000000" d="M144.2463,-200.692C144.2463,-194.4879 144.2463,-187.4019 144.2463,-180.5924"/>
<polygon fill="#000000" stroke="#000000" points="147.7463,-180.2859 144.2463,-170.2859 140.7463,-180.2859 147.7463,-180.2859"/>
<text text-anchor="middle" x="153.2463" y="-181.8" font-family="Times,serif" font-size="14.00" fill="#000000">0.5</text>
</g>
<!-- is green -->
<g id="node10" class="node">
<title>is green</title>
<ellipse fill="none" stroke="#000000" cx="243.2463" cy="-152" rx="38.1938" ry="18"/>
<text text-anchor="middle" x="243.2463" y="-148.3" font-family="Times,serif" font-size="14.00" fill="#000000">is green</text>
</g>
<!-- color is&#45;&gt;is green -->
<g id="edge10" class="edge">
<title>color is&#45;&gt;is green</title>
<path fill="none" stroke="#000000" d="M166.2176,-204.1305C179.9319,-194.8491 197.7801,-182.77 212.8423,-172.5764"/>
<polygon fill="#000000" stroke="#000000" points="215.0163,-175.3313 221.3364,-166.8279 211.093,-169.5341 215.0163,-175.3313"/>
<text text-anchor="middle" x="214.7463" y="-181.8" font-family="Times,serif" font-size="14.00" fill="#000000">0.25</text>
</g>
<!-- red END -->
<g id="node12" class="node">
<title>red END</title>
<ellipse fill="none" stroke="#000000" cx="42.2463" cy="-85" rx="42.4939" ry="18"/>
<text text-anchor="middle" x="42.2463" y="-81.3" font-family="Times,serif" font-size="14.00" fill="#000000">red END</text>
</g>
<!-- is red&#45;&gt;red END -->
<g id="edge11" class="edge">
<title>is red&#45;&gt;red END</title>
<path fill="none" stroke="#000000" d="M54.6906,-134.0452C53.0518,-127.5865 51.1617,-120.1372 49.3574,-113.0261"/>
<polygon fill="#000000" stroke="#000000" points="52.6665,-111.8364 46.8145,-103.0043 45.8815,-113.558 52.6665,-111.8364"/>
<text text-anchor="middle" x="56.7463" y="-114.8" font-family="Times,serif" font-size="14.00" fill="#000000">1</text>
</g>
<!-- blue END -->
<g id="node13" class="node">
<title>blue END</title>
<ellipse fill="none" stroke="#000000" cx="144.2463" cy="-85" rx="46.2923" ry="18"/>
<text text-anchor="middle" x="144.2463" y="-81.3" font-family="Times,serif" font-size="14.00" fill="#000000">blue END</text>
</g>
<!-- is blue&#45;&gt;blue END -->
<g id="edge12" class="edge">
<title>is blue&#45;&gt;blue END</title>
<path fill="none" stroke="#000000" d="M144.2463,-133.692C144.2463,-127.4879 144.2463,-120.4019 144.2463,-113.5924"/>
<polygon fill="#000000" stroke="#000000" points="147.7463,-113.2859 144.2463,-103.2859 140.7463,-113.2859 147.7463,-113.2859"/>
<text text-anchor="middle" x="147.7463" y="-114.8" font-family="Times,serif" font-size="14.00" fill="#000000">1</text>
</g>
<!-- green END -->
<g id="node14" class="node">
<title>green END</title>
<ellipse fill="none" stroke="#000000" cx="255.2463" cy="-85" rx="50.8918" ry="18"/>
<text text-anchor="middle" x="255.2463" y="-81.3" font-family="Times,serif" font-size="14.00" fill="#000000">green END</text>
</g>
<!-- is green&#45;&gt;green END -->
<g id="edge13" class="edge">
<title>is green&#45;&gt;green END</title>
<path fill="none" stroke="#000000" d="M246.462,-134.0452C247.6188,-127.5865 248.953,-120.1372 250.2267,-113.0261"/>
<polygon fill="#000000" stroke="#000000" points="253.7037,-113.4648 252.0216,-103.0043 246.8133,-112.2306 253.7037,-113.4648"/>
<text text-anchor="middle" x="253.7463" y="-114.8" font-family="Times,serif" font-size="14.00" fill="#000000">1</text>
</g>
<!-- END END -->
<g id="node11" class="node">
<title>END END</title>
<ellipse fill="none" stroke="#000000" cx="144.2463" cy="-18" rx="49.2915" ry="18"/>
<text text-anchor="middle" x="144.2463" y="-14.3" font-family="Times,serif" font-size="14.00" fill="#000000">END END</text>
</g>
<!-- red END&#45;&gt;END END -->
<g id="edge14" class="edge">
<title>red END&#45;&gt;END END</title>
<path fill="none" stroke="#000000" d="M65.3916,-69.7967C79.0511,-60.8243 96.556,-49.326 111.6015,-39.4431"/>
<polygon fill="#000000" stroke="#000000" points="113.6916,-42.2578 120.1282,-33.8423 109.8485,-36.4071 113.6916,-42.2578"/>
<text text-anchor="middle" x="106.7463" y="-47.8" font-family="Times,serif" font-size="14.00" fill="#000000">1</text>
</g>
<!-- blue END&#45;&gt;END END -->
<g id="edge15" class="edge">
<title>blue END&#45;&gt;END END</title>
<path fill="none" stroke="#000000" d="M144.2463,-66.692C144.2463,-60.4879 144.2463,-53.4019 144.2463,-46.5924"/>
<polygon fill="#000000" stroke="#000000" points="147.7463,-46.2859 144.2463,-36.2859 140.7463,-46.2859 147.7463,-46.2859"/>
<text text-anchor="middle" x="147.7463" y="-47.8" font-family="Times,serif" font-size="14.00" fill="#000000">1</text>
</g>
<!-- green END&#45;&gt;END END -->
<g id="edge16" class="edge">
<title>green END&#45;&gt;END END</title>
<path fill="none" stroke="#000000" d="M229.5016,-69.4604C214.3712,-60.3277 195.0519,-48.6665 178.6309,-38.7547"/>
<polygon fill="#000000" stroke="#000000" points="180.2213,-35.6265 169.8513,-33.4553 176.6039,-41.6194 180.2213,-35.6265"/>
<text text-anchor="middle" x="212.7463" y="-47.8" font-family="Times,serif" font-size="14.00" fill="#000000">1</text>
</g>
</g>
</svg>
