<?xml version="1.0" encoding="UTF-8" standalone="no"?>
<!DOCTYPE svg PUBLIC "-//W3C//DTD SVG 1.1//EN"
 "http://www.w3.org/Graphics/SVG/1.1/DTD/svg11.dtd">
<!-- Generated by graphviz version 2.40.1 (20161225.0304)
 -->
<!-- Title: %3 Pages: 1 -->
<svg width="540pt" height="152pt"
 viewBox="0.00 0.00 539.77 152.00" xmlns="http://www.w3.org/2000/svg" xmlns:xlink="http://www.w3.org/1999/xlink">
<g id="graph0" class="graph" transform="scale(1 1) rotate(0) translate(4 148)">
<title>%3</title>
<polygon fill="#ffffff" stroke="transparent" points="-4,4 -4,-148 535.7659,-148 535.7659,4 -4,4"/>
<!-- My favorite -->
<g id="node1" class="node">
<title>My favorite</title>
<ellipse fill="none" stroke="#000000" cx="58.4948" cy="-99" rx="53.0913" ry="18"/>
<text text-anchor="middle" x="58.4948" y="-95.3" font-family="Times,serif" font-size="14.00" fill="#000000">My favorite</text>
</g>
<!-- favorite color -->
<g id="node3" class="node">
<title>favorite color</title>
<ellipse fill="none" stroke="#000000" cx="218.4844" cy="-72" rx="58.4896" ry="18"/>
<text text-anchor="middle" x="218.4844" y="-68.3" font-family="Times,serif" font-size="14.00" fill="#000000">favorite color</text>
</g>
<!-- My favorite&#45;&gt;favorite color -->
<g id="edge1" class="edge">
<title>My favorite&#45;&gt;favorite color</title>
<path fill="none" stroke="#000000" d="M106.497,-90.8991C122.3514,-88.2235 140.2131,-85.2091 156.9371,-82.3868"/>
<polygon fill="#000000" stroke="#000000" points="157.8969,-85.7744 167.175,-80.659 156.732,-78.872 157.8969,-85.7744"/>
<text text-anchor="middle" x="138.4896" y="-88.8" font-family="Times,serif" font-size="14.00" fill="#000000">1</text>
</g>
<!-- Your favorite -->
<g id="node2" class="node">
<title>Your favorite</title>
<ellipse fill="none" stroke="#000000" cx="58.4948" cy="-45" rx="58.4896" ry="18"/>
<text text-anchor="middle" x="58.4948" y="-41.3" font-family="Times,serif" font-size="14.00" fill="#000000">Your favorite</text>
</g>
<!-- Your favorite&#45;&gt;favorite color -->
<g id="edge2" class="edge">
<title>Your favorite&#45;&gt;favorite color</title>
<path fill="none" stroke="#000000" d="M109.9972,-53.6916C124.9839,-56.2208 141.5054,-59.0089 157.0393,-61.6305"/>
<polygon fill="#000000" stroke="#000000" points="156.6355,-65.1117 167.0785,-63.3247 157.8004,-58.2093 156.6355,-65.1117"/>
<text text-anchor="middle" x="138.4896" y="-61.8" font-family="Times,serif" font-size="14.00" fill="#000000">1</text>
</g>
<!-- color is -->
<g id="node4" class="node">
<title>color is</title>
<ellipse fill="none" stroke="#000000" cx="357.026" cy="-72" rx="37.0935" ry="18"/>
<text text-anchor="middle" x="357.026" y="-68.3" font-family="Times,serif" font-size="14.00" fill="#000000">color is</text>
</g>
<!-- favorite color&#45;&gt;color is -->
<g id="edge3" class="edge">
<title>favorite color&#45;&gt;color is</title>
<path fill="none" stroke="#000000" d="M277.2385,-72C288.0796,-72 299.2726,-72 309.7217,-72"/>
<polygon fill="#000000" stroke="#000000" points="309.8823,-75.5001 319.8823,-72 309.8823,-68.5001 309.8823,-75.5001"/>
<text text-anchor="middle" x="298.4792" y="-75.8" font-family="Times,serif" font-size="14.00" fill="#000000">1</text>
</g>
<!-- is red -->
<g id="node5" class="node">
<title>is red</title>
<ellipse fill="none" stroke="#000000" cx="493.4193" cy="-126" rx="30.5947" ry="18"/>
<text text-anchor="middle" x="493.4193" y="-122.3" font-family="Times,serif" font-size="14.00" fill="#000000">is red</text>
</g>
<!-- color is&#45;&gt;is red -->
<g id="edge4" class="edge">
<title>color is&#45;&gt;is red</title>
<path fill="none" stroke="#000000" d="M385.9515,-83.452C407.0678,-91.8123 435.8043,-103.1894 458.2489,-112.0756"/>
<polygon fill="#000000" stroke="#000000" points="457.1685,-115.4121 467.7547,-115.839 459.7453,-108.9036 457.1685,-115.4121"/>
<text text-anchor="middle" x="424.5727" y="-105.8" font-family="Times,serif" font-size="14.00" fill="#000000">0.25</text>
</g>
<!-- is blue -->
<g id="node6" class="node">
<title>is blue</title>
<ellipse fill="none" stroke="#000000" cx="493.4193" cy="-72" rx="34.394" ry="18"/>
<text text-anchor="middle" x="493.4193" y="-68.3" font-family="Times,serif" font-size="14.00" fill="#000000">is blue</text>
</g>
<!-- color is&#45;&gt;is blue -->
<g id="edge5" class="edge">
<title>color is&#45;&gt;is blue</title>
<path fill="none" stroke="#000000" d="M394.296,-72C411.0432,-72 430.9473,-72 448.5097,-72"/>
<polygon fill="#000000" stroke="#000000" points="448.5381,-75.5001 458.5381,-72 448.538,-68.5001 448.5381,-75.5001"/>
<text text-anchor="middle" x="424.5727" y="-75.8" font-family="Times,serif" font-size="14.00" fill="#000000">0.5</text>
</g>
<!-- is green -->
<g id="node7" class="node">
<title>is green</title>
<ellipse fill="none" stroke="#000000" cx="493.4193" cy="-18" rx="38.1938" ry="18"/>
<text text-anchor="middle" x="493.4193" y="-14.3" font-family="Times,serif" font-size="14.00" fill="#000000">is green</text>
</g>
<!-- color is&#45;&gt;is green -->
<g id="edge6" class="edge">
<title>color is&#45;&gt;is green</title>
<path fill="none" stroke="#000000" d="M385.9515,-60.548C405.9779,-52.6192 432.8582,-41.9769 454.7253,-33.3195"/>
<polygon fill="#000000" stroke="#000000" points="456.0558,-36.5571 464.0652,-29.6217 453.479,-30.0486 456.0558,-36.5571"/>
<text text-anchor="middle" x="424.5727" y="-52.8" font-family="Times,serif" font-size="14.00" fill="#000000">0.25</text>
</g>
</g>
</svg>
