<?xml version="1.0" encoding="UTF-8" standalone="no"?>
<!DOCTYPE svg PUBLIC "-//W3C//DTD SVG 1.1//EN"
 "http://www.w3.org/Graphics/SVG/1.1/DTD/svg11.dtd">
<!-- Generated by graphviz version 2.40.1 (20161225.0304)
 -->
<!-- Title: %3 Pages: 1 -->
<svg width="1186pt" height="152pt"
 viewBox="0.00 0.00 1186.03 152.00" xmlns="http://www.w3.org/2000/svg" xmlns:xlink="http://www.w3.org/1999/xlink">
<g id="graph0" class="graph" transform="scale(1 1) rotate(0) translate(4 148)">
<title>%3</title>
<polygon fill="#ffffff" stroke="transparent" points="-4,4 -4,-148 1182.0254,-148 1182.0254,4 -4,4"/>
<!-- START START -->
<g id="node1" class="node">
<title>START START</title>
<ellipse fill="none" stroke="#000000" cx="68.8939" cy="-72" rx="68.7879" ry="18"/>
<text text-anchor="middle" x="68.8939" y="-68.3" font-family="Times,serif" font-size="14.00" fill="#000000">START START</text>
</g>
<!-- START My -->
<g id="node2" class="node">
<title>START My</title>
<ellipse fill="none" stroke="#000000" cx="257.9325" cy="-99" rx="53.8905" ry="18"/>
<text text-anchor="middle" x="257.9325" y="-95.3" font-family="Times,serif" font-size="14.00" fill="#000000">START My</text>
</g>
<!-- START START&#45;&gt;START My -->
<g id="edge1" class="edge">
<title>START START&#45;&gt;START My</title>
<path fill="none" stroke="#000000" d="M129.4869,-80.6544C151.3958,-83.7836 176.1087,-87.3133 197.9638,-90.4348"/>
<polygon fill="#000000" stroke="#000000" points="197.7154,-93.9348 208.1099,-91.8839 198.7052,-87.0051 197.7154,-93.9348"/>
<text text-anchor="middle" x="168.2878" y="-90.8" font-family="Times,serif" font-size="14.00" fill="#000000">0.75</text>
</g>
<!-- START Your -->
<g id="node3" class="node">
<title>START Your</title>
<ellipse fill="none" stroke="#000000" cx="257.9325" cy="-45" rx="59.2899" ry="18"/>
<text text-anchor="middle" x="257.9325" y="-41.3" font-family="Times,serif" font-size="14.00" fill="#000000">START Your</text>
</g>
<!-- START START&#45;&gt;START Your -->
<g id="edge2" class="edge">
<title>START START&#45;&gt;START Your</title>
<path fill="none" stroke="#000000" d="M129.4869,-63.3456C150.183,-60.3896 173.3812,-57.0763 194.3089,-54.0872"/>
<polygon fill="#000000" stroke="#000000" points="194.9746,-57.5278 204.3792,-52.6489 193.9848,-50.5981 194.9746,-57.5278"/>
<text text-anchor="middle" x="168.2878" y="-62.8" font-family="Times,serif" font-size="14.00" fill="#000000">0.25</text>
</g>
<!-- My favorite -->
<g id="node4" class="node">
<title>My favorite</title>
<ellipse fill="none" stroke="#000000" cx="418.5721" cy="-99" rx="53.0913" ry="18"/>
<text text-anchor="middle" x="418.5721" y="-95.3" font-family="Times,serif" font-size="14.00" fill="#000000">My favorite</text>
</g>
<!-- START My&#45;&gt;My favorite -->
<g id="edge3" class="edge">
<title>START My&#45;&gt;My favorite</title>
<path fill="none" stroke="#000000" d="M312.3178,-99C326.0143,-99 340.8379,-99 354.9431,-99"/>
<polygon fill="#000000" stroke="#000000" points="355.0605,-102.5001 365.0605,-99 355.0605,-95.5001 355.0605,-102.5001"/>
<text text-anchor="middle" x="338.5773" y="-102.8" font-family="Times,serif" font-size="14.00" fill="#000000">1</text>
</g>
<!-- Your favorite -->
<g id="node5" class="node">
<title>Your favorite</title>
<ellipse fill="none" stroke="#000000" cx="418.5721" cy="-45" rx="58.4896" ry="18"/>
<text text-anchor="middle" x="418.5721" y="-41.3" font-family="Times,serif" font-size="14.00" fill="#000000">Your favorite</text>
</g>
<!-- START Your&#45;&gt;Your favorite -->
<g id="edge4" class="edge">
<title>START Your&#45;&gt;Your favorite</title>
<path fill="none" stroke="#000000" d="M317.2924,-45C327.8582,-45 338.9444,-45 349.7472,-45"/>
<polygon fill="#000000" stroke="#000000" points="349.9917,-48.5001 359.9916,-45 349.9916,-41.5001 349.9917,-48.5001"/>
<text text-anchor="middle" x="338.5773" y="-48.8" font-family="Times,serif" font-size="14.00" fill="#000000">1</text>
</g>
<!-- favorite color -->
<g id="node6" class="node">
<title>favorite color</title>
<ellipse fill="none" stroke="#000000" cx="578.5617" cy="-72" rx="58.4896" ry="18"/>
<text text-anchor="middle" x="578.5617" y="-68.3" font-family="Times,serif" font-size="14.00" fill="#000000">favorite color</text>
</g>
<!-- My favorite&#45;&gt;favorite color -->
<g id="edge5" class="edge">
<title>My favorite&#45;&gt;favorite color</title>
<path fill="none" stroke="#000000" d="M466.5742,-90.8991C482.4286,-88.2235 500.2904,-85.2091 517.0144,-82.3868"/>
<polygon fill="#000000" stroke="#000000" points="517.9742,-85.7744 527.2523,-80.659 516.8093,-78.872 517.9742,-85.7744"/>
<text text-anchor="middle" x="498.5669" y="-88.8" font-family="Times,serif" font-size="14.00" fill="#000000">1</text>
</g>
<!-- Your favorite&#45;&gt;favorite color -->
<g id="edge6" class="edge">
<title>Your favorite&#45;&gt;favorite color</title>
<path fill="none" stroke="#000000" d="M470.0745,-53.6916C485.0612,-56.2208 501.5827,-59.0089 517.1165,-61.6305"/>
<polygon fill="#000000" stroke="#000000" points="516.7128,-65.1117 527.1558,-63.3247 517.8777,-58.2093 516.7128,-65.1117"/>
<text text-anchor="middle" x="498.5669" y="-61.8" font-family="Times,serif" font-size="14.00" fill="#000000">1</text>
</g>
<!-- color is -->
<g id="node7" class="node">
<title>color is</title>
<ellipse fill="none" stroke="#000000" cx="717.1032" cy="-72" rx="37.0935" ry="18"/>
<text text-anchor="middle" x="717.1032" y="-68.3" font-family="Times,serif" font-size="14.00" fill="#000000">color is</text>
</g>
<!-- favorite color&#45;&gt;color is -->
<g id="edge7" class="edge">
<title>favorite color&#45;&gt;color is</title>
<path fill="none" stroke="#000000" d="M637.3158,-72C648.1569,-72 659.3498,-72 669.799,-72"/>
<polygon fill="#000000" stroke="#000000" points="669.9596,-75.5001 679.9596,-72 669.9595,-68.5001 669.9596,-75.5001"/>
<text text-anchor="middle" x="658.5565" y="-75.8" font-family="Times,serif" font-size="14.00" fill="#000000">1</text>
</g>
<!-- is red -->
<g id="node8" class="node">
<title>is red</title>
<ellipse fill="none" stroke="#000000" cx="853.4965" cy="-126" rx="30.5947" ry="18"/>
<text text-anchor="middle" x="853.4965" y="-122.3" font-family="Times,serif" font-size="14.00" fill="#000000">is red</text>
</g>
<!-- color is&#45;&gt;is red -->
<g id="edge8" class="edge">
<title>color is&#45;&gt;is red</title>
<path fill="none" stroke="#000000" d="M746.0287,-83.452C767.1451,-91.8123 795.8816,-103.1894 818.3262,-112.0756"/>
<polygon fill="#000000" stroke="#000000" points="817.2458,-115.4121 827.832,-115.839 819.8226,-108.9036 817.2458,-115.4121"/>
<text text-anchor="middle" x="784.6499" y="-105.8" font-family="Times,serif" font-size="14.00" fill="#000000">0.25</text>
</g>
<!-- is blue -->
<g id="node9" class="node">
<title>is blue</title>
<ellipse fill="none" stroke="#000000" cx="853.4965" cy="-72" rx="34.394" ry="18"/>
<text text-anchor="middle" x="853.4965" y="-68.3" font-family="Times,serif" font-size="14.00" fill="#000000">is blue</text>
</g>
<!-- color is&#45;&gt;is blue -->
<g id="edge9" class="edge">
<title>color is&#45;&gt;is blue</title>
<path fill="none" stroke="#000000" d="M754.3733,-72C771.1205,-72 791.0246,-72 808.587,-72"/>
<polygon fill="#000000" stroke="#000000" points="808.6154,-75.5001 818.6153,-72 808.6153,-68.5001 808.6154,-75.5001"/>
<text text-anchor="middle" x="784.6499" y="-75.8" font-family="Times,serif" font-size="14.00" fill="#000000">0.5</text>
</g>
<!-- is green -->
<g id="node10" class="node">
<title>is green</title>
<ellipse fill="none" stroke="#000000" cx="853.4965" cy="-18" rx="38.1938" ry="18"/>
<text text-anchor="middle" x="853.4965" y="-14.3" font-family="Times,serif" font-size="14.00" fill="#000000">is green</text>
</g>
<!-- color is&#45;&gt;is green -->
<g id="edge10" class="edge">
<title>color is&#45;&gt;is green</title>
<path fill="none" stroke="#000000" d="M746.0287,-60.548C766.0552,-52.6192 792.9355,-41.9769 814.8025,-33.3195"/>
<polygon fill="#000000" stroke="#000000" points="816.1331,-36.5571 824.1425,-29.6217 813.5563,-30.0486 816.1331,-36.5571"/>
<text text-anchor="middle" x="784.6499" y="-52.8" font-family="Times,serif" font-size="14.00" fill="#000000">0.25</text>
</g>
<!-- red END -->
<g id="node12" class="node">
<title>red END</title>
<ellipse fill="none" stroke="#000000" cx="985.5386" cy="-126" rx="42.4939" ry="18"/>
<text text-anchor="middle" x="985.5386" y="-122.3" font-family="Times,serif" font-size="14.00" fill="#000000">red END</text>
</g>
<!-- is red&#45;&gt;red END -->
<g id="edge11" class="edge">
<title>is red&#45;&gt;red END</title>
<path fill="none" stroke="#000000" d="M884.1215,-126C898.6323,-126 916.382,-126 932.9527,-126"/>
<polygon fill="#000000" stroke="#000000" points="933.0784,-129.5001 943.0784,-126 933.0783,-122.5001 933.0784,-129.5001"/>
<text text-anchor="middle" x="913.3431" y="-129.8" font-family="Times,serif" font-size="14.00" fill="#000000">1</text>
</g>
<!-- blue END -->
<g id="node13" class="node">
<title>blue END</title>
<ellipse fill="none" stroke="#000000" cx="985.5386" cy="-72" rx="46.2923" ry="18"/>
<text text-anchor="middle" x="985.5386" y="-68.3" font-family="Times,serif" font-size="14.00" fill="#000000">blue END</text>
</g>
<!-- is blue&#45;&gt;blue END -->
<g id="edge12" class="edge">
<title>is blue&#45;&gt;blue END</title>
<path fill="none" stroke="#000000" d="M888.189,-72C900.6104,-72 914.9578,-72 928.7561,-72"/>
<polygon fill="#000000" stroke="#000000" points="929.1596,-75.5001 939.1596,-72 929.1596,-68.5001 929.1596,-75.5001"/>
<text text-anchor="middle" x="913.3431" y="-75.8" font-family="Times,serif" font-size="14.00" fill="#000000">1</text>
</g>
<!-- green END -->
<g id="node14" class="node">
<title>green END</title>
<ellipse fill="none" stroke="#000000" cx="985.5386" cy="-18" rx="50.8918" ry="18"/>
<text text-anchor="middle" x="985.5386" y="-14.3" font-family="Times,serif" font-size="14.00" fill="#000000">green END</text>
</g>
<!-- is green&#45;&gt;green END -->
<g id="edge13" class="edge">
<title>is green&#45;&gt;green END</title>
<path fill="none" stroke="#000000" d="M892.0435,-18C902.1843,-18 913.3776,-18 924.3892,-18"/>
<polygon fill="#000000" stroke="#000000" points="924.4154,-21.5001 934.4154,-18 924.4153,-14.5001 924.4154,-21.5001"/>
<text text-anchor="middle" x="913.3431" y="-21.8" font-family="Times,serif" font-size="14.00" fill="#000000">1</text>
</g>
<!-- END END -->
<g id="node11" class="node">
<title>END END</title>
<ellipse fill="none" stroke="#000000" cx="1128.6298" cy="-72" rx="49.2915" ry="18"/>
<text text-anchor="middle" x="1128.6298" y="-68.3" font-family="Times,serif" font-size="14.00" fill="#000000">END END</text>
</g>
<!-- red END&#45;&gt;END END -->
<g id="edge14" class="edge">
<title>red END&#45;&gt;END END</title>
<path fill="none" stroke="#000000" d="M1017.2952,-114.0156C1037.1622,-106.5182 1063.031,-96.7558 1084.8321,-88.5284"/>
<polygon fill="#000000" stroke="#000000" points="1086.0906,-91.7945 1094.2108,-84.9891 1083.619,-85.2453 1086.0906,-91.7945"/>
<text text-anchor="middle" x="1057.7341" y="-102.8" font-family="Times,serif" font-size="14.00" fill="#000000">1</text>
</g>
<!-- blue END&#45;&gt;END END -->
<g id="edge15" class="edge">
<title>blue END&#45;&gt;END END</title>
<path fill="none" stroke="#000000" d="M1031.9962,-72C1043.7269,-72 1056.4879,-72 1068.7759,-72"/>
<polygon fill="#000000" stroke="#000000" points="1068.9537,-75.5001 1078.9537,-72 1068.9536,-68.5001 1068.9537,-75.5001"/>
<text text-anchor="middle" x="1057.7341" y="-75.8" font-family="Times,serif" font-size="14.00" fill="#000000">1</text>
</g>
<!-- green END&#45;&gt;END END -->
<g id="edge16" class="edge">
<title>green END&#45;&gt;END END</title>
<path fill="none" stroke="#000000" d="M1020.5427,-31.2099C1039.8278,-38.4877 1063.9549,-47.5929 1084.5185,-55.3532"/>
<polygon fill="#000000" stroke="#000000" points="1083.3954,-58.6702 1093.9871,-58.9265 1085.867,-52.1211 1083.3954,-58.6702"/>
<text text-anchor="middle" x="1057.7341" y="-48.8" font-family="Times,serif" font-size="14.00" fill="#000000">1</text>
</g>
</g>
</svg>
