<?xml version="1.0" encoding="UTF-8" standalone="no"?>
<!DOCTYPE svg PUBLIC "-//W3C//DTD SVG 1.1//EN"
 "http://www.w3.org/Graphics/SVG/1.1/DTD/svg11.dtd">
<!-- Generated by graphviz version 2.40.1 (20161225.0304)
 -->
<!-- Title: %3 Pages: 1 -->
<svg width="1188pt" height="98pt"
 viewBox="0.00 0.00 1188.12 98.00" xmlns="http://www.w3.org/2000/svg" xmlns:xlink="http://www.w3.org/1999/xlink">
<g id="graph0" class="graph" transform="scale(1 1) rotate(0) translate(4 94)">
<title>%3</title>
<polygon fill="#ffffff" stroke="transparent" points="-4,4 -4,-94 1184.1153,-94 1184.1153,4 -4,4"/>
<!-- START START -->
<g id="node1" class="node">
<title>START START</title>
<ellipse fill="none" stroke="#000000" cx="68.8939" cy="-45" rx="68.7879" ry="18"/>
<text text-anchor="middle" x="68.8939" y="-41.3" font-family="Times,serif" font-size="14.00" fill="#000000">START START</text>
</g>
<!-- START (alice, Hey) -->
<g id="node2" class="node">
<title>START (alice, Hey)</title>
<ellipse fill="none" stroke="#000000" cx="278.2301" cy="-72" rx="83.3857" ry="18"/>
<text text-anchor="middle" x="278.2301" y="-68.3" font-family="Times,serif" font-size="14.00" fill="#000000">START (alice, Hey)</text>
</g>
<!-- START START&#45;&gt;START (alice, Hey) -->
<g id="edge1" class="edge">
<title>START START&#45;&gt;START (alice, Hey)</title>
<path fill="none" stroke="#000000" d="M130.852,-52.9913C151.4485,-55.6478 174.7082,-58.6478 196.5608,-61.4664"/>
<polygon fill="#000000" stroke="#000000" points="196.122,-64.9387 206.4876,-62.7467 197.0175,-57.9962 196.122,-64.9387"/>
<text text-anchor="middle" x="164.7878" y="-61.8" font-family="Times,serif" font-size="14.00" fill="#000000">0.5</text>
</g>
<!-- START (alice, HEY) -->
<g id="node3" class="node">
<title>START (alice, HEY)</title>
<ellipse fill="none" stroke="#000000" cx="278.2301" cy="-18" rx="86.3847" ry="18"/>
<text text-anchor="middle" x="278.2301" y="-14.3" font-family="Times,serif" font-size="14.00" fill="#000000">START (alice, HEY)</text>
</g>
<!-- START START&#45;&gt;START (alice, HEY) -->
<g id="edge2" class="edge">
<title>START START&#45;&gt;START (alice, HEY)</title>
<path fill="none" stroke="#000000" d="M130.852,-37.0087C150.8353,-34.4313 173.3256,-31.5305 194.6055,-28.7858"/>
<polygon fill="#000000" stroke="#000000" points="195.1399,-32.246 204.61,-27.4955 194.2444,-25.3035 195.1399,-32.246"/>
<text text-anchor="middle" x="164.7878" y="-36.8" font-family="Times,serif" font-size="14.00" fill="#000000">0.5</text>
</g>
<!-- (alice, Hey) SEND -->
<g id="node4" class="node">
<title>(alice, Hey) SEND</title>
<ellipse fill="none" stroke="#000000" cx="488.9152" cy="-72" rx="77.9862" ry="18"/>
<text text-anchor="middle" x="488.9152" y="-68.3" font-family="Times,serif" font-size="14.00" fill="#000000">(alice, Hey) SEND</text>
</g>
<!-- START (alice, Hey)&#45;&gt;(alice, Hey) SEND -->
<g id="edge3" class="edge">
<title>START (alice, Hey)&#45;&gt;(alice, Hey) SEND</title>
<path fill="none" stroke="#000000" d="M361.4984,-72C374.2953,-72 387.5472,-72 400.4521,-72"/>
<polygon fill="#000000" stroke="#000000" points="400.7119,-75.5001 410.7118,-72 400.7118,-68.5001 400.7119,-75.5001"/>
<text text-anchor="middle" x="386.1724" y="-75.8" font-family="Times,serif" font-size="14.00" fill="#000000">1</text>
</g>
<!-- (alice, HEY) SEND -->
<g id="node5" class="node">
<title>(alice, HEY) SEND</title>
<ellipse fill="none" stroke="#000000" cx="488.9152" cy="-18" rx="81.4863" ry="18"/>
<text text-anchor="middle" x="488.9152" y="-14.3" font-family="Times,serif" font-size="14.00" fill="#000000">(alice, HEY) SEND</text>
</g>
<!-- START (alice, HEY)&#45;&gt;(alice, HEY) SEND -->
<g id="edge4" class="edge">
<title>START (alice, HEY)&#45;&gt;(alice, HEY) SEND</title>
<path fill="none" stroke="#000000" d="M364.8359,-18C375.5009,-18 386.4307,-18 397.1689,-18"/>
<polygon fill="#000000" stroke="#000000" points="397.3906,-21.5001 407.3906,-18 397.3905,-14.5001 397.3906,-21.5001"/>
<text text-anchor="middle" x="386.1724" y="-21.8" font-family="Times,serif" font-size="14.00" fill="#000000">1</text>
</g>
<!-- SEND (bob, Hey) -->
<g id="node6" class="node">
<title>SEND (bob, Hey)</title>
<ellipse fill="none" stroke="#000000" cx="687.9014" cy="-45" rx="74.9875" ry="18"/>
<text text-anchor="middle" x="687.9014" y="-41.3" font-family="Times,serif" font-size="14.00" fill="#000000">SEND (bob, Hey)</text>
</g>
<!-- (alice, Hey) SEND&#45;&gt;SEND (bob, Hey) -->
<g id="edge5" class="edge">
<title>(alice, Hey) SEND&#45;&gt;SEND (bob, Hey)</title>
<path fill="none" stroke="#000000" d="M556.2829,-62.859C574.3579,-60.4065 594.0176,-57.7389 612.4976,-55.2314"/>
<polygon fill="#000000" stroke="#000000" points="613.1868,-58.67 622.6253,-53.8572 612.2455,-51.7336 613.1868,-58.67"/>
<text text-anchor="middle" x="591.658" y="-61.8" font-family="Times,serif" font-size="14.00" fill="#000000">1</text>
</g>
<!-- (alice, HEY) SEND&#45;&gt;SEND (bob, Hey) -->
<g id="edge6" class="edge">
<title>(alice, HEY) SEND&#45;&gt;SEND (bob, Hey)</title>
<path fill="none" stroke="#000000" d="M558.2316,-27.4054C575.6711,-29.7717 594.4769,-32.3234 612.2109,-34.7297"/>
<polygon fill="#000000" stroke="#000000" points="612.1303,-38.2508 622.5101,-36.1272 613.0715,-31.3143 612.1303,-38.2508"/>
<text text-anchor="middle" x="591.658" y="-35.8" font-family="Times,serif" font-size="14.00" fill="#000000">1</text>
</g>
<!-- (bob, Hey) (bob, there) -->
<g id="node7" class="node">
<title>(bob, Hey) (bob, there)</title>
<ellipse fill="none" stroke="#000000" cx="898.5865" cy="-45" rx="92.8835" ry="18"/>
<text text-anchor="middle" x="898.5865" y="-41.3" font-family="Times,serif" font-size="14.00" fill="#000000">(bob, Hey) (bob, there)</text>
</g>
<!-- SEND (bob, Hey)&#45;&gt;(bob, Hey) (bob, there) -->
<g id="edge7" class="edge">
<title>SEND (bob, Hey)&#45;&gt;(bob, Hey) (bob, there)</title>
<path fill="none" stroke="#000000" d="M762.7743,-45C773.3692,-45 784.414,-45 795.4269,-45"/>
<polygon fill="#000000" stroke="#000000" points="795.5182,-48.5001 805.5181,-45 795.5181,-41.5001 795.5182,-48.5001"/>
<text text-anchor="middle" x="784.1448" y="-48.8" font-family="Times,serif" font-size="14.00" fill="#000000">1</text>
</g>
<!-- (bob, there) END -->
<g id="node8" class="node">
<title>(bob, there) END</title>
<ellipse fill="none" stroke="#000000" cx="1107.3218" cy="-45" rx="72.5877" ry="18"/>
<text text-anchor="middle" x="1107.3218" y="-41.3" font-family="Times,serif" font-size="14.00" fill="#000000">(bob, there) END</text>
</g>
<!-- (bob, Hey) (bob, there)&#45;&gt;(bob, there) END -->
<g id="edge8" class="edge">
<title>(bob, Hey) (bob, there)&#45;&gt;(bob, there) END</title>
<path fill="none" stroke="#000000" d="M991.6606,-45C1002.5356,-45 1013.5761,-45 1024.3023,-45"/>
<polygon fill="#000000" stroke="#000000" points="1024.4743,-48.5001 1034.4743,-45 1024.4743,-41.5001 1024.4743,-48.5001"/>
<text text-anchor="middle" x="1013.0283" y="-48.8" font-family="Times,serif" font-size="14.00" fill="#000000">1</text>
</g>
</g>
</svg>
