<?xml version="1.0" encoding="UTF-8" standalone="no"?>
<!DOCTYPE svg PUBLIC "-//W3C//DTD SVG 1.1//EN"
 "http://www.w3.org/Graphics/SVG/1.1/DTD/svg11.dtd">
<!-- Generated by graphviz version 2.40.1 (20161225.0304)
 -->
<!-- Title: %3 Pages: 1 -->
<svg width="194pt" height="379pt"
 viewBox="0.00 0.00 193.88 379.00" xmlns="http://www.w3.org/2000/svg" xmlns:xlink="http://www.w3.org/1999/xlink">
<g id="graph0" class="graph" transform="scale(1 1) rotate(0) translate(4 375)">
<title>%3</title>
<polygon fill="#ffffff" stroke="transparent" points="-4,4 -4,-375 189.8835,-375 189.8835,4 -4,4"/>
<!-- START START -->
<g id="node1" class="node">
<title>START START</title>
<ellipse fill="none" stroke="#000000" cx="92.9418" cy="-353" rx="68.7879" ry="18"/>
<text text-anchor="middle" x="92.9418" y="-349.3" font-family="Times,serif" font-size="14.00" fill="#000000">START START</text>
</g>
<!-- START (alice, Hey) -->
<g id="node2" class="node">
<title>START (alice, Hey)</title>
<ellipse fill="none" stroke="#000000" cx="92.9418" cy="-286" rx="83.3857" ry="18"/>
<text text-anchor="middle" x="92.9418" y="-282.3" font-family="Times,serif" font-size="14.00" fill="#000000">START (alice, Hey)</text>
</g>
<!-- START START&#45;&gt;START (alice, Hey) -->
<g id="edge1" class="edge">
<title>START START&#45;&gt;START (alice, Hey)</title>
<path fill="none" stroke="#000000" d="M92.9418,-334.692C92.9418,-328.4879 92.9418,-321.4019 92.9418,-314.5924"/>
<polygon fill="#000000" stroke="#000000" points="96.4419,-314.2859 92.9418,-304.2859 89.4419,-314.2859 96.4419,-314.2859"/>
<text text-anchor="middle" x="96.4418" y="-315.8" font-family="Times,serif" font-size="14.00" fill="#000000">1</text>
</g>
<!-- (alice, Hey) SEND -->
<g id="node3" class="node">
<title>(alice, Hey) SEND</title>
<ellipse fill="none" stroke="#000000" cx="92.9418" cy="-219" rx="77.9862" ry="18"/>
<text text-anchor="middle" x="92.9418" y="-215.3" font-family="Times,serif" font-size="14.00" fill="#000000">(alice, Hey) SEND</text>
</g>
<!-- START (alice, Hey)&#45;&gt;(alice, Hey) SEND -->
<g id="edge2" class="edge">
<title>START (alice, Hey)&#45;&gt;(alice, Hey) SEND</title>
<path fill="none" stroke="#000000" d="M92.9418,-267.692C92.9418,-261.4879 92.9418,-254.4019 92.9418,-247.5924"/>
<polygon fill="#000000" stroke="#000000" points="96.4419,-247.2859 92.9418,-237.2859 89.4419,-247.2859 96.4419,-247.2859"/>
<text text-anchor="middle" x="96.4418" y="-248.8" font-family="Times,serif" font-size="14.00" fill="#000000">1</text>
</g>
<!-- SEND (bob, Hey) -->
<g id="node4" class="node">
<title>SEND (bob, Hey)</title>
<ellipse fill="none" stroke="#000000" cx="92.9418" cy="-152" rx="74.9875" ry="18"/>
<text text-anchor="middle" x="92.9418" y="-148.3" font-family="Times,serif" font-size="14.00" fill="#000000">SEND (bob, Hey)</text>
</g>
<!-- (alice, Hey) SEND&#45;&gt;SEND (bob, Hey) -->
<g id="edge3" class="edge">
<title>(alice, Hey) SEND&#45;&gt;SEND (bob, Hey)</title>
<path fill="none" stroke="#000000" d="M92.9418,-200.692C92.9418,-194.4879 92.9418,-187.4019 92.9418,-180.5924"/>
<polygon fill="#000000" stroke="#000000" points="96.4419,-180.2859 92.9418,-170.2859 89.4419,-180.2859 96.4419,-180.2859"/>
<text text-anchor="middle" x="96.4418" y="-181.8" font-family="Times,serif" font-size="14.00" fill="#000000">1</text>
</g>
<!-- (bob, Hey) (bob, there) -->
<g id="node5" class="node">
<title>(bob, Hey) (bob, there)</title>
<ellipse fill="none" stroke="#000000" cx="92.9418" cy="-85" rx="92.8835" ry="18"/>
<text text-anchor="middle" x="92.9418" y="-81.3" font-family="Times,serif" font-size="14.00" fill="#000000">(bob, Hey) (bob, there)</text>
</g>
<!-- SEND (bob, Hey)&#45;&gt;(bob, Hey) (bob, there) -->
<g id="edge4" class="edge">
<title>SEND (bob, Hey)&#45;&gt;(bob, Hey) (bob, there)</title>
<path fill="none" stroke="#000000" d="M92.9418,-133.692C92.9418,-127.4879 92.9418,-120.4019 92.9418,-113.5924"/>
<polygon fill="#000000" stroke="#000000" points="96.4419,-113.2859 92.9418,-103.2859 89.4419,-113.2859 96.4419,-113.2859"/>
<text text-anchor="middle" x="96.4418" y="-114.8" font-family="Times,serif" font-size="14.00" fill="#000000">1</text>
</g>
<!-- (bob, there) END -->
<g id="node6" class="node">
<title>(bob, there) END</title>
<ellipse fill="none" stroke="#000000" cx="92.9418" cy="-18" rx="72.5877" ry="18"/>
<text text-anchor="middle" x="92.9418" y="-14.3" font-family="Times,serif" font-size="14.00" fill="#000000">(bob, there) END</text>
</g>
<!-- (bob, Hey) (bob, there)&#45;&gt;(bob, there) END -->
<g id="edge5" class="edge">
<title>(bob, Hey) (bob, there)&#45;&gt;(bob, there) END</title>
<path fill="none" stroke="#000000" d="M92.9418,-66.692C92.9418,-60.4879 92.9418,-53.4019 92.9418,-46.5924"/>
<polygon fill="#000000" stroke="#000000" points="96.4419,-46.2859 92.9418,-36.2859 89.4419,-46.2859 96.4419,-46.2859"/>
<text text-anchor="middle" x="96.4418" y="-47.8" font-family="Times,serif" font-size="14.00" fill="#000000">1</text>
</g>
</g>
</svg>
