<?xml version="1.0" encoding="UTF-8" standalone="no"?>
<!DOCTYPE svg PUBLIC "-//W3C//DTD SVG 1.1//EN"
 "http://www.w3.org/Graphics/SVG/1.1/DTD/svg11.dtd">
<!-- Generated by graphviz version 2.40.1 (20161225.0304)
 -->
<!-- Title: %3 Pages: 1 -->
<svg width="362pt" height="379pt"
 viewBox="0.00 0.00 361.63 379.00" xmlns="http://www.w3.org/2000/svg" xmlns:xlink="http://www.w3.org/1999/xlink">
<g id="graph0" class="graph" transform="scale(1 1) rotate(0) translate(4 375)">
<title>%3</title>
<polygon fill="#ffffff" stroke="transparent" points="-4,4 -4,-375 357.6349,-375 357.6349,4 -4,4"/>
<!-- START START -->
<g id="node1" class="node">
<title>START START</title>
<ellipse fill="none" stroke="#000000" cx="174.1926" cy="-353" rx="68.7879" ry="18"/>
<text text-anchor="middle" x="174.1926" y="-349.3" font-family="Times,serif" font-size="14.00" fill="#000000">START START</text>
</g>
<!-- START (alice, Hey) -->
<g id="node2" class="node">
<title>START (alice, Hey)</title>
<ellipse fill="none" stroke="#000000" cx="83.1926" cy="-286" rx="83.3857" ry="18"/>
<text text-anchor="middle" x="83.1926" y="-282.3" font-family="Times,serif" font-size="14.00" fill="#000000">START (alice, Hey)</text>
</g>
<!-- START START&#45;&gt;START (alice, Hey) -->
<g id="edge1" class="edge">
<title>START START&#45;&gt;START (alice, Hey)</title>
<path fill="none" stroke="#000000" d="M150.7579,-335.7458C139.9096,-327.7587 126.8533,-318.1458 115.1219,-309.5084"/>
<polygon fill="#000000" stroke="#000000" points="116.9922,-306.5391 106.8642,-303.4286 112.8419,-312.176 116.9922,-306.5391"/>
<text text-anchor="middle" x="146.1926" y="-315.8" font-family="Times,serif" font-size="14.00" fill="#000000">0.5</text>
</g>
<!-- START (alice, HEY) -->
<g id="node3" class="node">
<title>START (alice, HEY)</title>
<ellipse fill="none" stroke="#000000" cx="267.1926" cy="-286" rx="86.3847" ry="18"/>
<text text-anchor="middle" x="267.1926" y="-282.3" font-family="Times,serif" font-size="14.00" fill="#000000">START (alice, HEY)</text>
</g>
<!-- START START&#45;&gt;START (alice, HEY) -->
<g id="edge2" class="edge">
<title>START START&#45;&gt;START (alice, HEY)</title>
<path fill="none" stroke="#000000" d="M198.1424,-335.7458C209.2291,-327.7587 222.5724,-318.1458 234.5616,-309.5084"/>
<polygon fill="#000000" stroke="#000000" points="236.9329,-312.1137 243.0007,-303.4286 232.8411,-306.4341 236.9329,-312.1137"/>
<text text-anchor="middle" x="237.1926" y="-315.8" font-family="Times,serif" font-size="14.00" fill="#000000">0.5</text>
</g>
<!-- (alice, Hey) SEND -->
<g id="node4" class="node">
<title>(alice, Hey) SEND</title>
<ellipse fill="none" stroke="#000000" cx="91.1926" cy="-219" rx="77.9862" ry="18"/>
<text text-anchor="middle" x="91.1926" y="-215.3" font-family="Times,serif" font-size="14.00" fill="#000000">(alice, Hey) SEND</text>
</g>
<!-- START (alice, Hey)&#45;&gt;(alice, Hey) SEND -->
<g id="edge3" class="edge">
<title>START (alice, Hey)&#45;&gt;(alice, Hey) SEND</title>
<path fill="none" stroke="#000000" d="M85.3787,-267.692C86.1194,-261.4879 86.9655,-254.4019 87.7786,-247.5924"/>
<polygon fill="#000000" stroke="#000000" points="91.2988,-247.6304 89.0092,-237.2859 84.3482,-246.8004 91.2988,-247.6304"/>
<text text-anchor="middle" x="91.6926" y="-248.8" font-family="Times,serif" font-size="14.00" fill="#000000">1</text>
</g>
<!-- (alice, HEY) SEND -->
<g id="node5" class="node">
<title>(alice, HEY) SEND</title>
<ellipse fill="none" stroke="#000000" cx="265.1926" cy="-219" rx="81.4863" ry="18"/>
<text text-anchor="middle" x="265.1926" y="-215.3" font-family="Times,serif" font-size="14.00" fill="#000000">(alice, HEY) SEND</text>
</g>
<!-- START (alice, HEY)&#45;&gt;(alice, HEY) SEND -->
<g id="edge4" class="edge">
<title>START (alice, HEY)&#45;&gt;(alice, HEY) SEND</title>
<path fill="none" stroke="#000000" d="M266.6461,-267.692C266.4609,-261.4879 266.2494,-254.4019 266.0461,-247.5924"/>
<polygon fill="#000000" stroke="#000000" points="269.5354,-247.177 265.7385,-237.2859 262.5385,-247.3859 269.5354,-247.177"/>
<text text-anchor="middle" x="269.6926" y="-248.8" font-family="Times,serif" font-size="14.00" fill="#000000">1</text>
</g>
<!-- SEND (bob, Hey) -->
<g id="node6" class="node">
<title>SEND (bob, Hey)</title>
<ellipse fill="none" stroke="#000000" cx="177.1926" cy="-152" rx="74.9875" ry="18"/>
<text text-anchor="middle" x="177.1926" y="-148.3" font-family="Times,serif" font-size="14.00" fill="#000000">SEND (bob, Hey)</text>
</g>
<!-- (alice, Hey) SEND&#45;&gt;SEND (bob, Hey) -->
<g id="edge5" class="edge">
<title>(alice, Hey) SEND&#45;&gt;SEND (bob, Hey)</title>
<path fill="none" stroke="#000000" d="M113.7881,-201.3965C123.9404,-193.4872 136.0682,-184.0388 146.9856,-175.5334"/>
<polygon fill="#000000" stroke="#000000" points="149.3079,-178.161 155.0455,-169.2542 145.0059,-172.6389 149.3079,-178.161"/>
<text text-anchor="middle" x="145.6926" y="-181.8" font-family="Times,serif" font-size="14.00" fill="#000000">1</text>
</g>
<!-- (alice, HEY) SEND&#45;&gt;SEND (bob, Hey) -->
<g id="edge6" class="edge">
<title>(alice, HEY) SEND&#45;&gt;SEND (bob, Hey)</title>
<path fill="none" stroke="#000000" d="M242.0717,-201.3965C231.6832,-193.4872 219.2734,-184.0388 208.1021,-175.5334"/>
<polygon fill="#000000" stroke="#000000" points="209.9314,-172.5272 199.8548,-169.2542 205.691,-178.0967 209.9314,-172.5272"/>
<text text-anchor="middle" x="231.6926" y="-181.8" font-family="Times,serif" font-size="14.00" fill="#000000">1</text>
</g>
<!-- (bob, Hey) (bob, there) -->
<g id="node7" class="node">
<title>(bob, Hey) (bob, there)</title>
<ellipse fill="none" stroke="#000000" cx="177.1926" cy="-85" rx="92.8835" ry="18"/>
<text text-anchor="middle" x="177.1926" y="-81.3" font-family="Times,serif" font-size="14.00" fill="#000000">(bob, Hey) (bob, there)</text>
</g>
<!-- SEND (bob, Hey)&#45;&gt;(bob, Hey) (bob, there) -->
<g id="edge7" class="edge">
<title>SEND (bob, Hey)&#45;&gt;(bob, Hey) (bob, there)</title>
<path fill="none" stroke="#000000" d="M177.1926,-133.692C177.1926,-127.4879 177.1926,-120.4019 177.1926,-113.5924"/>
<polygon fill="#000000" stroke="#000000" points="180.6927,-113.2859 177.1926,-103.2859 173.6927,-113.2859 180.6927,-113.2859"/>
<text text-anchor="middle" x="180.6926" y="-114.8" font-family="Times,serif" font-size="14.00" fill="#000000">1</text>
</g>
<!-- (bob, there) END -->
<g id="node8" class="node">
<title>(bob, there) END</title>
<ellipse fill="none" stroke="#000000" cx="177.1926" cy="-18" rx="72.5877" ry="18"/>
<text text-anchor="middle" x="177.1926" y="-14.3" font-family="Times,serif" font-size="14.00" fill="#000000">(bob, there) END</text>
</g>
<!-- (bob, Hey) (bob, there)&#45;&gt;(bob, there) END -->
<g id="edge8" class="edge">
<title>(bob, Hey) (bob, there)&#45;&gt;(bob, there) END</title>
<path fill="none" stroke="#000000" d="M177.1926,-66.692C177.1926,-60.4879 177.1926,-53.4019 177.1926,-46.5924"/>
<polygon fill="#000000" stroke="#000000" points="180.6927,-46.2859 177.1926,-36.2859 173.6927,-46.2859 180.6927,-46.2859"/>
<text text-anchor="middle" x="180.6926" y="-47.8" font-family="Times,serif" font-size="14.00" fill="#000000">1</text>
</g>
</g>
</svg>
