<?xml version="1.0" encoding="UTF-8" standalone="no"?>
<!DOCTYPE svg PUBLIC "-//W3C//DTD SVG 1.1//EN"
 "http://www.w3.org/Graphics/SVG/1.1/DTD/svg11.dtd">
<!-- Generated by graphviz version 2.40.1 (20161225.0304)
 -->
<!-- Title: %3 Pages: 1 -->
<svg width="1164pt" height="44pt"
 viewBox="0.00 0.00 1164.12 44.00" xmlns="http://www.w3.org/2000/svg" xmlns:xlink="http://www.w3.org/1999/xlink">
<g id="graph0" class="graph" transform="scale(1 1) rotate(0) translate(4 40)">
<title>%3</title>
<polygon fill="#ffffff" stroke="transparent" points="-4,4 -4,-40 1160.1165,-40 1160.1165,4 -4,4"/>
<!-- START START -->
<g id="node1" class="node">
<title>START START</title>
<ellipse fill="none" stroke="#000000" cx="68.8939" cy="-18" rx="68.7879" ry="18"/>
<text text-anchor="middle" x="68.8939" y="-14.3" font-family="Times,serif" font-size="14.00" fill="#000000">START START</text>
</g>
<!-- START (alice, Hey) -->
<g id="node2" class="node">
<title>START (alice, Hey)</title>
<ellipse fill="none" stroke="#000000" cx="263.9804" cy="-18" rx="83.3857" ry="18"/>
<text text-anchor="middle" x="263.9804" y="-14.3" font-family="Times,serif" font-size="14.00" fill="#000000">START (alice, Hey)</text>
</g>
<!-- START START&#45;&gt;START (alice, Hey) -->
<g id="edge1" class="edge">
<title>START START&#45;&gt;START (alice, Hey)</title>
<path fill="none" stroke="#000000" d="M137.9486,-18C148.5226,-18 159.5861,-18 170.5793,-18"/>
<polygon fill="#000000" stroke="#000000" points="170.6394,-21.5001 180.6394,-18 170.6393,-14.5001 170.6394,-21.5001"/>
<text text-anchor="middle" x="159.2878" y="-21.8" font-family="Times,serif" font-size="14.00" fill="#000000">1</text>
</g>
<!-- (alice, Hey) SEND -->
<g id="node3" class="node">
<title>(alice, Hey) SEND</title>
<ellipse fill="none" stroke="#000000" cx="468.1661" cy="-18" rx="77.9862" ry="18"/>
<text text-anchor="middle" x="468.1661" y="-14.3" font-family="Times,serif" font-size="14.00" fill="#000000">(alice, Hey) SEND</text>
</g>
<!-- START (alice, Hey)&#45;&gt;(alice, Hey) SEND -->
<g id="edge2" class="edge">
<title>START (alice, Hey)&#45;&gt;(alice, Hey) SEND</title>
<path fill="none" stroke="#000000" d="M347.325,-18C358.0215,-18 369.0022,-18 379.7757,-18"/>
<polygon fill="#000000" stroke="#000000" points="380.0254,-21.5001 390.0253,-18 380.0253,-14.5001 380.0254,-21.5001"/>
<text text-anchor="middle" x="368.673" y="-21.8" font-family="Times,serif" font-size="14.00" fill="#000000">1</text>
</g>
<!-- SEND (bob, Hey) -->
<g id="node4" class="node">
<title>SEND (bob, Hey)</title>
<ellipse fill="none" stroke="#000000" cx="663.9025" cy="-18" rx="74.9875" ry="18"/>
<text text-anchor="middle" x="663.9025" y="-14.3" font-family="Times,serif" font-size="14.00" fill="#000000">SEND (bob, Hey)</text>
</g>
<!-- (alice, Hey) SEND&#45;&gt;SEND (bob, Hey) -->
<g id="edge3" class="edge">
<title>(alice, Hey) SEND&#45;&gt;SEND (bob, Hey)</title>
<path fill="none" stroke="#000000" d="M546.3702,-18C557.022,-18 567.9979,-18 578.7648,-18"/>
<polygon fill="#000000" stroke="#000000" points="579.0062,-21.5001 589.0062,-18 579.0061,-14.5001 579.0062,-21.5001"/>
<text text-anchor="middle" x="567.6592" y="-21.8" font-family="Times,serif" font-size="14.00" fill="#000000">1</text>
</g>
<!-- (bob, Hey) (bob, there) -->
<g id="node5" class="node">
<title>(bob, Hey) (bob, there)</title>
<ellipse fill="none" stroke="#000000" cx="874.5877" cy="-18" rx="92.8835" ry="18"/>
<text text-anchor="middle" x="874.5877" y="-14.3" font-family="Times,serif" font-size="14.00" fill="#000000">(bob, Hey) (bob, there)</text>
</g>
<!-- SEND (bob, Hey)&#45;&gt;(bob, Hey) (bob, there) -->
<g id="edge4" class="edge">
<title>SEND (bob, Hey)&#45;&gt;(bob, Hey) (bob, there)</title>
<path fill="none" stroke="#000000" d="M738.7755,-18C749.3703,-18 760.4151,-18 771.4281,-18"/>
<polygon fill="#000000" stroke="#000000" points="771.5193,-21.5001 781.5193,-18 771.5192,-14.5001 771.5193,-21.5001"/>
<text text-anchor="middle" x="760.1459" y="-21.8" font-family="Times,serif" font-size="14.00" fill="#000000">1</text>
</g>
<!-- (bob, there) END -->
<g id="node6" class="node">
<title>(bob, there) END</title>
<ellipse fill="none" stroke="#000000" cx="1083.323" cy="-18" rx="72.5877" ry="18"/>
<text text-anchor="middle" x="1083.323" y="-14.3" font-family="Times,serif" font-size="14.00" fill="#000000">(bob, there) END</text>
</g>
<!-- (bob, Hey) (bob, there)&#45;&gt;(bob, there) END -->
<g id="edge5" class="edge">
<title>(bob, Hey) (bob, there)&#45;&gt;(bob, there) END</title>
<path fill="none" stroke="#000000" d="M967.6617,-18C978.5367,-18 989.5773,-18 1000.3035,-18"/>
<polygon fill="#000000" stroke="#000000" points="1000.4755,-21.5001 1010.4755,-18 1000.4754,-14.5001 1000.4755,-21.5001"/>
<text text-anchor="middle" x="989.0294" y="-21.8" font-family="Times,serif" font-size="14.00" fill="#000000">1</text>
</g>
</g>
</svg>
