<?xml version="1.0" encoding="UTF-8" standalone="no"?>
<!DOCTYPE svg PUBLIC "-//W3C//DTD SVG 1.1//EN"
 "http://www.w3.org/Graphics/SVG/1.1/DTD/svg11.dtd">
<!-- Generated by graphviz version 2.40.1 (20161225.0304)
 -->
<!-- Title: %3 Pages: 1 -->
<svg width="704pt" height="44pt"
 viewBox="0.00 0.00 703.85 44.00" xmlns="http://www.w3.org/2000/svg" xmlns:xlink="http://www.w3.org/1999/xlink">
<g id="graph0" class="graph" transform="scale(1 1) rotate(0) translate(4 40)">
<title>%3</title>
<polygon fill="#ffffff" stroke="transparent" points="-4,4 -4,-40 699.8535,-40 699.8535,4 -4,4"/>
<!-- I have -->
<g id="node1" class="node">
<title>I have</title>
<ellipse fill="none" stroke="#000000" cx="32.4971" cy="-18" rx="32.4942" ry="18"/>
<text text-anchor="middle" x="32.4971" y="-14.3" font-family="Times,serif" font-size="14.00" fill="#000000">I have</text>
</g>
<!-- have a -->
<g id="node2" class="node">
<title>have a</title>
<ellipse fill="none" stroke="#000000" cx="141.7912" cy="-18" rx="33.5952" ry="18"/>
<text text-anchor="middle" x="141.7912" y="-14.3" font-family="Times,serif" font-size="14.00" fill="#000000">have a</text>
</g>
<!-- I have&#45;&gt;have a -->
<g id="edge1" class="edge">
<title>I have&#45;&gt;have a</title>
<path fill="none" stroke="#000000" d="M65.289,-18C75.4859,-18 86.8984,-18 97.7334,-18"/>
<polygon fill="#000000" stroke="#000000" points="97.8861,-21.5001 107.886,-18 97.886,-14.5001 97.8861,-21.5001"/>
<text text-anchor="middle" x="86.4942" y="-21.8" font-family="Times,serif" font-size="14.00" fill="#000000">1</text>
</g>
<!-- a doctor&#39;s -->
<g id="node3" class="node">
<title>a doctor&#39;s</title>
<ellipse fill="none" stroke="#000000" cx="262.7843" cy="-18" rx="44.393" ry="18"/>
<text text-anchor="middle" x="262.7843" y="-14.3" font-family="Times,serif" font-size="14.00" fill="#000000">a doctor&#39;s</text>
</g>
<!-- have a&#45;&gt;a doctor&#39;s -->
<g id="edge2" class="edge">
<title>have a&#45;&gt;a doctor&#39;s</title>
<path fill="none" stroke="#000000" d="M175.8165,-18C185.7745,-18 196.9245,-18 207.832,-18"/>
<polygon fill="#000000" stroke="#000000" points="208.1687,-21.5001 218.1686,-18 208.1686,-14.5001 208.1687,-21.5001"/>
<text text-anchor="middle" x="197.0882" y="-21.8" font-family="Times,serif" font-size="14.00" fill="#000000">1</text>
</g>
<!-- doctor&#39;s appointment -->
<g id="node4" class="node">
<title>doctor&#39;s appointment</title>
<ellipse fill="none" stroke="#000000" cx="435.1228" cy="-18" rx="85.2851" ry="18"/>
<text text-anchor="middle" x="435.1228" y="-14.3" font-family="Times,serif" font-size="14.00" fill="#000000">doctor&#39;s appointment</text>
</g>
<!-- a doctor&#39;s&#45;&gt;doctor&#39;s appointment -->
<g id="edge3" class="edge">
<title>a doctor&#39;s&#45;&gt;doctor&#39;s appointment</title>
<path fill="none" stroke="#000000" d="M307.1658,-18C317.1686,-18 328.1626,-18 339.3757,-18"/>
<polygon fill="#000000" stroke="#000000" points="339.7129,-21.5001 349.7129,-18 339.7129,-14.5001 339.7129,-21.5001"/>
<text text-anchor="middle" x="328.4804" y="-21.8" font-family="Times,serif" font-size="14.00" fill="#000000">1</text>
</g>
<!-- appointment on -->
<g id="node5" class="node">
<title>appointment on</title>
<ellipse fill="none" stroke="#000000" cx="629.5594" cy="-18" rx="66.0889" ry="18"/>
<text text-anchor="middle" x="629.5594" y="-14.3" font-family="Times,serif" font-size="14.00" fill="#000000">appointment on</text>
</g>
<!-- doctor&#39;s appointment&#45;&gt;appointment on -->
<g id="edge4" class="edge">
<title>doctor&#39;s appointment&#45;&gt;appointment on</title>
<path fill="none" stroke="#000000" d="M520.4055,-18C531.231,-18 542.2569,-18 552.9353,-18"/>
<polygon fill="#000000" stroke="#000000" points="553.0491,-21.5001 563.0491,-18 553.049,-14.5001 553.0491,-21.5001"/>
<text text-anchor="middle" x="541.7653" y="-21.8" font-family="Times,serif" font-size="14.00" fill="#000000">1</text>
</g>
</g>
</svg>
