<?xml version="1.0" encoding="UTF-8" standalone="no"?>
<!DOCTYPE svg PUBLIC "-//W3C//DTD SVG 1.1//EN"
 "http://www.w3.org/Graphics/SVG/1.1/DTD/svg11.dtd">
<!-- Generated by graphviz version 2.40.1 (20161225.0304)
 -->
<!-- Title: %3 Pages: 1 -->
<svg width="170pt" height="79pt"
 viewBox="0.00 0.00 170.00 79.10" xmlns="http://www.w3.org/2000/svg" xmlns:xlink="http://www.w3.org/1999/xlink">
<g id="graph0" class="graph" transform="scale(1 1) rotate(0) translate(4 75.1004)">
<title>%3</title>
<polygon fill="#ffffff" stroke="transparent" points="-4,4 -4,-75.1004 166,-75.1004 166,4 -4,4"/>
<!-- sun -->
<g id="node1" class="node">
<title>sun</title>
<ellipse fill="none" stroke="#000000" cx="27" cy="-20.1004" rx="27" ry="18"/>
<text text-anchor="middle" x="27" y="-16.4004" font-family="Times,serif" font-size="14.00" fill="#000000">sun</text>
</g>
<!-- sun&#45;&gt;sun -->
<g id="edge2" class="edge">
<title>sun&#45;&gt;sun</title>
<path fill="none" stroke="#000000" d="M17.4312,-37.1377C15.4784,-46.9583 18.668,-56.1004 27,-56.1004 32.2075,-56.1004 35.4063,-52.5292 36.5963,-47.4533"/>
<polygon fill="#000000" stroke="#000000" points="40.0955,-47.1283 36.5688,-37.1377 33.0955,-47.147 40.0955,-47.1283"/>
<text text-anchor="middle" x="27" y="-59.9004" font-family="Times,serif" font-size="14.00" fill="#000000">0.9</text>
</g>
<!-- rain -->
<g id="node2" class="node">
<title>rain</title>
<ellipse fill="none" stroke="#000000" cx="135" cy="-20.1004" rx="27" ry="18"/>
<text text-anchor="middle" x="135" y="-16.4004" font-family="Times,serif" font-size="14.00" fill="#000000">rain</text>
</g>
<!-- sun&#45;&gt;rain -->
<g id="edge1" class="edge">
<title>sun&#45;&gt;rain</title>
<path fill="none" stroke="#000000" d="M54.253,-20.1004C67.4273,-20.1004 83.4432,-20.1004 97.7267,-20.1004"/>
<polygon fill="#000000" stroke="#000000" points="97.7558,-23.6005 107.7558,-20.1004 97.7557,-16.6005 97.7558,-23.6005"/>
<text text-anchor="middle" x="81" y="-23.9004" font-family="Times,serif" font-size="14.00" fill="#000000">0.1</text>
</g>
<!-- rain&#45;&gt;sun -->
<g id="edge3" class="edge">
<title>rain&#45;&gt;sun</title>
<path fill="none" stroke="#000000" d="M113.5889,-9.0052C106.3022,-5.7915 97.9792,-2.7158 90,-1.1004 79.139,1.0985 67.4637,-1.0967 57.1505,-4.6719"/>
<polygon fill="#000000" stroke="#000000" points="55.7407,-1.4661 47.751,-8.4241 58.3359,-7.9672 55.7407,-1.4661"/>
<text text-anchor="middle" x="81" y="-4.9004" font-family="Times,serif" font-size="14.00" fill="#000000">0.2</text>
</g>
<!-- rain&#45;&gt;rain -->
<g id="edge4" class="edge">
<title>rain&#45;&gt;rain</title>
<path fill="none" stroke="#000000" d="M125.4312,-37.1377C123.4784,-46.9583 126.668,-56.1004 135,-56.1004 140.2075,-56.1004 143.4063,-52.5292 144.5963,-47.4533"/>
<polygon fill="#000000" stroke="#000000" points="148.0955,-47.1283 144.5688,-37.1377 141.0955,-47.147 148.0955,-47.1283"/>
<text text-anchor="middle" x="135" y="-59.9004" font-family="Times,serif" font-size="14.00" fill="#000000">0.8</text>
</g>
</g>
</svg>
